<svg xmlns="http://www.w3.org/2000/svg" width="933px" height="960px" viewBox="0 0 933 960" fill="rgba(248, 239, 216,.95)">

<path d=" M 460.48 0.00 L 470.47 0.00 C 500.55 6.38 531.05 10.62 561.16 16.86 C 574.66 20.83 587.59 26.50 600.86 31.19 C 612.86 35.98 625.28 39.69 636.98 45.21 C 659.19 57.19 679.18 76.83 684.85 102.16 C 688.59 115.75 693.43 129.19 694.52 143.35 C 695.20 152.99 697.61 162.40 698.20 172.05 C 700.80 190.03 704.54 207.89 705.90 226.03 C 705.67 228.82 707.42 235.72 702.78 236.31 C 690.91 238.28 679.22 241.17 667.35 243.07 C 650.05 245.19 634.01 252.43 617.06 256.11 C 617.04 257.50 617.03 258.89 617.03 260.28 C 629.44 257.69 641.57 254.00 653.84 250.86 C 670.69 247.37 687.71 244.81 704.62 241.64 C 742.55 235.83 780.47 244.83 817.10 253.86 C 827.93 256.35 837.79 261.57 847.81 266.18 C 861.78 272.95 876.18 279.53 887.51 290.45 C 896.73 297.61 903.55 307.13 911.19 315.81 C 917.62 322.50 920.78 331.51 923.90 340.06 C 929.85 355.85 930.81 372.86 933.00 389.44 L 933.00 392.44 C 928.22 411.42 924.89 431.03 915.70 448.54 C 907.07 470.26 896.38 491.36 881.56 509.56 C 879.38 511.76 877.27 514.55 874.18 515.40 C 866.65 514.90 857.06 513.72 854.66 505.16 C 851.54 501.89 853.91 497.83 854.69 494.26 C 849.84 491.62 844.33 489.11 842.00 483.76 C 844.81 482.36 847.64 480.97 850.45 479.55 C 847.73 476.39 844.97 473.00 841.28 471.01 C 835.80 469.64 829.31 471.62 824.83 467.20 C 819.17 464.99 820.96 456.61 815.13 455.07 C 803.02 451.41 788.93 445.16 785.25 431.80 C 778.46 432.55 771.34 433.72 765.49 437.47 C 762.83 438.90 761.49 443.05 765.01 444.90 C 769.12 449.79 775.93 449.96 781.31 452.71 C 787.05 455.69 793.12 457.93 799.33 459.75 C 799.57 460.39 800.06 461.66 800.31 462.29 C 796.03 463.18 791.69 463.94 787.43 464.78 C 787.25 466.06 787.08 467.35 786.93 468.64 C 789.98 469.98 793.46 470.75 796.01 473.02 C 798.12 476.25 797.85 480.42 798.81 484.00 C 793.95 485.92 789.00 487.62 784.15 489.54 C 789.45 493.00 795.97 494.12 800.77 498.42 C 802.61 497.37 804.40 496.12 806.46 495.52 C 809.47 498.25 812.23 501.38 816.10 502.96 C 823.66 505.95 826.02 515.49 834.25 517.51 C 846.45 519.88 859.01 519.81 871.25 521.89 C 875.77 524.22 877.31 529.86 880.16 533.90 C 865.39 537.23 848.33 540.89 839.34 554.43 C 848.36 560.26 857.61 567.07 868.65 568.19 C 875.91 568.43 883.13 567.21 890.41 567.31 C 885.49 575.43 874.92 578.44 865.97 578.18 C 854.11 576.22 842.03 575.30 830.38 572.22 C 827.51 571.73 824.64 571.45 821.76 571.38 C 826.44 574.29 831.71 576.03 836.49 578.76 C 839.79 580.56 841.54 584.15 844.58 586.28 C 850.08 588.10 855.93 588.04 861.65 588.71 C 861.66 589.80 861.67 590.90 861.68 592.00 C 844.83 591.07 827.92 588.56 811.08 591.37 C 802.14 593.34 794.19 587.12 785.27 588.17 C 776.76 588.59 771.00 580.81 763.07 579.34 C 757.72 578.93 755.04 585.11 757.31 589.63 C 761.71 600.95 771.76 608.59 779.44 617.59 C 777.74 619.39 773.59 620.86 776.01 623.96 C 778.11 631.55 783.83 637.81 790.82 641.28 C 795.29 643.46 799.18 646.55 802.87 649.86 C 794.06 649.68 785.24 648.24 777.05 644.90 C 767.91 641.57 760.17 635.46 751.24 631.70 C 744.19 628.75 738.61 623.41 732.28 619.31 C 734.94 632.36 748.63 638.93 754.18 650.46 C 759.32 664.65 773.10 672.51 782.69 683.24 C 764.90 680.93 754.56 662.43 736.80 660.02 C 741.50 665.30 746.63 670.26 750.50 676.22 C 739.28 673.59 730.09 666.36 719.49 662.26 C 723.09 675.43 731.91 686.07 739.14 697.34 C 731.75 693.49 725.81 687.03 717.78 684.44 C 723.23 700.19 734.12 713.57 746.29 724.70 C 751.11 729.50 756.64 733.95 759.72 740.17 C 746.30 739.97 743.16 722.10 730.09 720.51 C 732.18 728.09 732.09 737.14 737.90 743.10 C 743.07 748.56 748.83 753.45 753.56 759.33 C 746.69 757.96 741.00 753.85 735.10 750.39 C 732.94 751.99 730.80 756.46 727.72 754.32 C 722.27 750.48 719.42 743.63 713.46 740.50 C 708.89 738.02 706.97 742.69 705.39 745.65 C 690.94 738.78 676.89 731.12 662.70 723.75 C 663.86 715.43 666.62 707.56 669.86 699.88 C 671.79 695.84 668.35 692.07 666.86 688.57 C 668.87 683.89 672.45 679.43 672.56 674.14 C 671.15 670.02 666.64 667.55 666.08 663.07 C 664.72 652.09 664.13 640.98 665.04 629.94 C 657.78 636.95 657.39 647.91 653.71 656.76 C 652.39 656.85 651.08 656.94 649.78 657.04 C 652.17 648.65 654.72 640.31 657.07 631.92 C 654.15 630.49 650.83 629.46 648.57 627.02 C 647.05 623.83 645.71 620.35 645.59 616.80 C 646.08 612.69 648.95 609.34 650.66 605.71 C 651.38 605.88 652.81 606.23 653.52 606.40 C 650.55 612.02 647.47 619.31 651.73 625.21 C 656.97 628.85 664.61 628.10 669.90 624.84 C 679.12 617.81 686.67 608.89 693.83 599.84 C 703.85 586.69 711.12 570.41 710.02 553.55 C 704.77 563.10 699.94 572.89 695.63 582.91 C 694.29 582.51 692.95 582.12 691.64 581.74 C 695.84 572.06 699.98 562.32 705.09 553.07 C 707.70 548.05 711.81 543.55 717.16 541.47 C 721.01 540.01 721.49 535.21 723.07 532.00 C 725.81 523.98 729.34 516.26 732.12 508.25 C 728.17 508.87 724.30 509.68 720.42 510.60 C 715.90 505.92 711.76 499.69 705.05 498.06 C 698.90 496.61 692.71 494.68 687.34 491.31 C 684.93 488.73 684.63 484.85 682.63 482.02 C 675.70 476.02 663.46 477.45 658.59 485.41 C 656.16 490.09 655.62 495.50 653.17 500.17 C 651.90 502.82 650.11 505.30 649.50 508.22 C 648.33 521.94 651.13 535.75 649.23 549.45 C 647.83 554.27 645.26 558.67 643.19 563.23 C 642.33 563.00 640.60 562.54 639.74 562.31 C 641.91 556.26 645.33 550.50 645.54 543.93 C 646.13 530.45 645.26 516.94 644.27 503.50 C 643.58 496.67 640.93 490.26 637.71 484.26 C 634.59 476.89 632.11 468.84 633.11 460.77 C 633.62 450.17 635.04 439.63 636.87 429.18 C 638.61 421.32 634.36 413.60 634.92 405.73 C 635.26 401.93 635.80 398.19 636.45 394.44 C 639.56 408.72 646.33 422.07 655.75 433.21 C 657.47 434.70 659.59 435.59 661.61 436.63 C 659.09 429.88 654.72 424.22 650.35 418.63 C 645.41 412.94 646.41 405.22 645.74 398.31 C 640.47 394.23 635.21 390.04 631.34 384.54 C 634.17 385.94 637.05 387.38 639.90 388.82 C 640.64 387.92 641.39 387.03 642.15 386.15 C 636.78 381.86 631.27 377.52 627.20 371.92 C 634.97 374.29 642.43 377.54 650.04 380.37 C 650.00 378.47 649.95 376.57 649.89 374.68 C 654.49 385.83 666.03 391.83 677.06 395.09 C 677.55 392.65 678.03 390.21 678.57 387.79 C 683.44 390.12 688.27 392.64 693.47 394.20 C 692.54 391.47 692.03 388.29 689.75 386.29 C 683.24 380.77 675.45 377.17 668.44 372.41 C 665.21 370.17 661.42 368.88 657.54 368.37 C 645.63 366.15 633.61 364.47 621.59 362.97 C 621.33 364.19 621.07 365.42 620.82 366.65 C 615.06 359.55 605.58 357.58 597.02 356.22 C 563.35 354.61 529.61 356.23 496.02 358.72 C 480.88 361.34 465.83 364.49 450.82 367.76 C 450.98 368.46 451.30 369.84 451.46 370.54 C 466.31 370.03 481.10 372.53 494.83 378.17 C 491.31 379.93 487.53 381.10 483.79 382.29 C 485.96 384.78 488.14 387.26 490.24 389.82 C 486.60 391.98 482.17 393.24 479.54 396.74 C 483.65 399.77 488.88 399.70 493.68 398.83 C 499.23 404.96 505.88 409.97 512.88 414.36 C 512.25 415.49 511.62 416.63 511.00 417.77 C 506.30 416.18 501.59 414.53 496.79 413.30 C 491.89 412.20 487.05 414.51 482.37 415.51 C 475.42 417.10 469.04 420.34 463.25 424.43 C 478.22 429.66 494.43 432.33 507.90 441.13 C 514.02 444.68 516.80 451.58 521.34 456.65 C 524.29 459.46 528.33 460.61 531.99 462.22 C 531.85 462.96 531.58 464.44 531.44 465.18 C 527.80 464.35 524.24 463.22 520.61 462.39 C 514.23 460.79 508.01 464.17 501.96 465.64 C 501.67 464.54 501.39 463.45 501.11 462.37 C 505.63 460.67 510.15 458.98 514.67 457.27 C 508.90 449.39 499.16 445.35 489.63 444.70 C 484.72 445.20 480.57 448.43 475.72 449.21 C 466.35 450.60 456.65 450.45 447.61 453.58 C 444.44 454.60 441.56 457.07 440.69 460.36 C 441.11 465.30 444.67 469.61 444.25 474.69 C 443.37 479.16 440.16 482.70 437.15 485.93 C 437.72 482.86 438.48 479.84 439.33 476.84 C 432.52 475.31 425.82 473.28 419.61 470.03 C 423.82 467.17 428.39 464.03 428.42 458.17 C 421.90 458.75 415.42 459.52 408.97 460.54 C 407.68 450.22 412.11 440.47 416.12 431.26 C 419.06 434.01 422.75 437.93 427.23 435.36 C 429.67 434.43 429.18 431.88 427.84 430.20 C 424.36 425.53 418.07 426.95 413.29 428.24 C 412.59 422.25 410.90 416.43 410.08 410.46 C 410.17 407.18 409.22 401.48 413.65 400.77 C 422.13 399.43 430.78 399.62 439.30 398.51 C 439.02 397.28 438.75 396.06 438.47 394.84 C 432.59 394.18 426.39 392.34 423.91 386.44 C 427.94 384.97 432.04 383.69 436.18 382.57 C 433.15 380.26 429.92 378.20 426.78 376.06 C 432.23 373.35 438.03 371.37 443.25 368.20 C 436.92 364.97 429.52 366.38 423.53 369.71 C 423.61 373.57 425.07 377.79 423.53 381.57 C 422.11 384.33 419.49 386.15 417.27 388.21 C 414.99 386.03 412.43 382.87 408.86 384.08 C 402.74 385.62 396.50 384.29 390.44 383.20 C 389.61 386.61 388.84 390.00 388.11 393.45 C 387.24 393.65 386.37 393.85 385.50 394.06 C 383.29 390.14 381.94 385.52 378.57 382.37 C 376.24 380.30 372.93 380.87 370.11 381.11 C 365.45 381.65 360.74 381.35 356.18 380.33 C 355.01 387.62 353.91 394.93 352.34 402.15 C 351.66 402.04 350.30 401.81 349.61 401.70 C 347.69 394.24 343.86 387.33 338.34 381.92 C 333.40 384.27 327.96 389.22 322.41 385.71 C 325.77 383.65 329.21 381.74 332.48 379.53 C 305.62 379.71 278.85 382.35 252.06 383.95 C 252.03 385.29 252.00 386.64 251.97 387.99 C 266.27 387.04 280.60 386.60 294.89 385.49 C 303.82 384.72 313.37 384.85 321.34 389.48 C 320.38 393.36 317.45 397.20 318.30 401.42 C 319.71 410.73 325.91 418.25 329.58 426.69 C 330.50 430.99 329.29 435.45 329.44 439.82 C 335.66 446.61 344.34 450.69 349.99 458.02 C 345.32 460.81 340.86 463.98 337.16 468.00 C 334.10 465.23 331.10 462.01 326.90 461.10 C 314.81 458.17 302.28 459.46 289.98 459.80 C 285.73 460.85 279.10 458.77 276.62 463.60 C 272.72 469.62 275.14 477.32 271.52 483.45 C 270.25 482.69 269.00 481.94 267.75 481.19 C 271.31 470.11 264.43 459.06 266.88 447.87 C 269.49 440.38 276.64 436.24 281.23 430.13 C 276.49 428.87 271.25 427.73 266.50 429.54 C 261.52 431.69 256.93 434.69 252.29 437.47 C 248.63 440.13 249.67 445.23 249.98 449.06 C 251.84 462.44 251.90 476.17 255.51 489.26 C 257.23 496.68 255.78 504.45 257.22 511.91 C 260.58 524.14 267.09 535.35 269.20 547.95 C 273.14 564.03 275.64 580.43 276.00 597.01 C 274.62 596.98 273.25 596.95 271.88 596.93 C 270.47 579.96 268.91 562.94 264.51 546.44 C 261.46 535.32 258.92 523.55 251.82 514.15 C 249.74 511.42 247.44 508.71 246.66 505.28 C 245.42 501.52 245.31 496.70 241.58 494.41 C 232.42 488.67 222.92 483.41 214.39 476.72 C 200.82 466.50 184.52 461.25 169.72 453.23 C 150.68 444.40 134.90 430.09 116.09 420.86 C 105.83 415.90 96.23 409.69 87.08 402.92 C 76.49 394.99 65.33 387.43 56.73 377.25 C 43.11 361.25 29.88 342.90 27.20 321.52 C 36.74 325.70 41.39 335.52 48.51 342.49 C 57.32 350.75 66.91 359.27 79.14 361.73 C 89.57 363.48 100.10 364.65 110.47 366.75 C 126.42 369.99 142.83 368.82 159.00 369.12 C 173.60 368.83 188.46 369.91 202.85 366.85 C 213.32 364.26 223.60 360.79 234.34 359.43 C 249.24 357.63 264.27 357.09 279.17 355.20 C 314.50 350.61 349.89 346.37 384.95 340.04 C 384.97 338.64 384.99 337.25 385.02 335.87 C 365.00 338.90 345.04 342.35 324.95 344.89 C 311.17 346.56 297.42 349.09 283.48 348.68 C 264.98 348.67 246.40 350.58 227.95 348.38 C 230.68 343.70 233.69 339.15 235.92 334.21 C 237.89 328.24 237.48 321.81 238.80 315.70 C 242.83 295.41 248.88 275.60 253.49 255.45 C 260.12 226.59 266.79 197.73 273.99 169.00 C 279.42 148.51 282.51 127.49 288.11 107.03 C 292.92 90.72 295.26 73.81 300.16 57.52 C 302.21 47.61 305.61 37.98 309.94 28.85 C 311.42 25.32 315.48 24.53 318.75 23.52 C 349.90 15.35 381.82 10.67 413.36 4.25 C 428.81 0.70 444.73 0.77 460.48 0.00 Z" />
<path d=" M 645.54 373.27 C 646.41 372.12 648.37 373.59 647.46 374.73 C 646.57 375.87 644.61 374.40 645.54 373.27 Z" />
<path d=" M 663.50 376.81 C 666.18 377.72 668.68 379.12 670.66 381.17 C 667.98 380.24 665.54 378.77 663.50 376.81 Z" />
<path d=" M 363.71 387.78 C 365.21 388.84 366.70 389.92 368.20 391.01 C 367.47 392.11 366.74 393.21 366.02 394.32 C 365.20 392.16 364.43 389.98 363.71 387.78 Z" />
<path d=" M 402.88 387.96 C 403.99 388.42 405.11 388.88 406.23 389.35 C 405.24 390.38 404.25 391.42 403.27 392.46 C 403.13 390.95 403.00 389.46 402.88 387.96 Z" />
<path d=" M 376.29 405.59 C 379.09 406.23 382.20 406.55 384.51 408.44 C 385.60 410.71 385.87 413.25 386.34 415.70 C 381.70 413.93 377.61 410.55 376.29 405.59 Z" />
<path d=" M 536.71 438.05 C 540.73 435.56 544.77 433.08 548.82 430.64 C 549.35 431.80 549.87 432.97 550.38 434.15 C 546.32 436.55 542.28 438.99 538.21 441.36 C 537.70 440.25 537.20 439.15 536.71 438.05 Z" />
<path d=" M 546.72 453.64 C 548.09 451.64 549.50 449.67 550.90 447.69 C 551.91 448.50 552.92 449.31 553.94 450.14 C 552.52 452.07 551.11 454.01 549.74 455.98 C 548.72 455.20 547.71 454.42 546.72 453.64 Z" />
<path d=" M 367.95 454.13 C 368.91 453.83 369.86 453.52 370.82 453.23 C 371.87 453.86 372.92 454.50 373.97 455.16 C 373.98 456.86 374.00 460.26 374.01 461.97 C 372.33 462.65 370.66 463.33 368.99 464.01 C 368.62 460.72 368.27 457.41 367.95 454.13 Z" />
<path d=" M 351.28 458.02 C 352.62 458.01 353.97 458.00 355.32 458.00 C 355.19 463.08 354.76 468.12 354.01 473.13 C 351.78 477.68 348.73 481.80 345.93 486.02 C 344.63 485.33 343.34 484.64 342.05 483.96 C 347.46 476.20 352.23 467.86 351.28 458.02 Z" />
<path d=" M 412.84 464.86 C 415.28 464.57 417.72 464.30 420.18 464.05 C 418.50 465.73 416.83 467.42 415.16 469.11 C 414.38 467.68 413.61 466.27 412.84 464.86 Z" />
<path d=" M 361.84 476.06 C 363.36 472.09 364.80 467.92 367.89 464.86 C 369.52 467.96 371.84 470.67 375.26 471.81 C 376.76 481.64 367.11 489.04 370.82 499.02 C 366.70 503.29 363.34 508.58 357.97 511.45 C 361.21 504.94 359.96 497.63 361.02 490.69 C 361.63 485.83 359.89 480.72 361.84 476.06 Z" />
<path d=" M 270.26 490.76 C 271.25 491.81 272.23 492.86 273.22 493.92 C 271.40 496.35 269.57 498.79 267.74 501.24 C 266.75 500.18 265.76 499.13 264.78 498.08 C 266.59 495.63 268.42 493.19 270.26 490.76 Z" />
<path d=" M 673.78 499.77 C 678.50 495.49 685.03 495.26 691.01 494.75 C 690.97 496.07 690.95 497.39 690.93 498.72 C 686.12 499.63 680.53 499.04 676.88 502.88 C 672.57 506.58 668.64 510.69 664.42 514.49 C 664.02 513.85 663.22 512.55 662.81 511.91 C 666.50 507.90 669.81 503.52 673.78 499.77 Z" />
<path d=" M 832.27 499.04 C 834.15 498.38 834.98 501.58 833.06 501.98 C 831.19 502.53 830.34 499.47 832.27 499.04 Z" />
<path d=" M 474.09 507.19 C 475.89 506.36 477.83 505.92 479.73 505.40 C 479.04 508.47 477.48 511.20 474.94 513.10 C 474.57 511.14 474.16 509.18 474.09 507.19 Z" />
<path d=" M 673.42 510.29 C 674.89 509.76 676.37 509.25 677.86 508.74 C 678.21 510.35 678.58 511.97 678.95 513.59 C 677.07 512.54 675.23 511.44 673.42 510.29 Z" />
<path d=" M 845.53 518.12 C 846.94 515.93 848.69 520.02 846.10 519.41 C 845.96 519.09 845.68 518.44 845.53 518.12 Z" />
<path d=" M 665.96 525.05 C 667.35 525.03 668.76 525.01 670.17 525.01 C 667.58 536.01 666.79 547.30 666.64 558.59 C 667.97 558.10 669.30 557.61 670.66 557.15 C 669.26 562.52 665.46 566.71 660.77 569.49 C 660.14 567.82 659.52 566.17 658.89 564.52 C 658.94 570.42 659.94 576.23 660.96 582.02 C 659.66 581.98 658.37 581.94 657.09 581.92 C 656.19 576.97 654.77 572.07 654.56 567.05 C 656.24 561.41 663.93 558.75 662.65 551.97 C 662.94 542.90 663.39 533.79 665.96 525.05 Z" />
<path d=" M 334.20 527.08 C 335.53 527.04 336.87 527.01 338.21 526.98 C 337.09 534.36 334.99 541.60 334.31 549.04 C 335.35 555.16 337.86 560.97 339.84 566.86 C 338.60 567.15 337.37 567.45 336.15 567.75 C 334.25 561.54 331.02 555.56 330.69 548.98 C 331.09 541.59 333.05 534.37 334.20 527.08 Z" />
<path d=" M 360.15 528.32 C 364.87 530.40 370.20 531.67 373.85 535.57 C 376.68 534.17 379.74 533.34 382.91 533.33 C 381.56 537.42 381.68 542.35 378.70 545.66 C 369.59 548.29 359.88 549.19 350.41 548.18 C 348.88 547.90 347.43 546.69 347.97 544.99 C 348.02 540.32 355.05 541.53 357.26 538.29 C 358.09 535.64 357.31 532.79 357.22 530.09 C 358.19 529.48 359.16 528.89 360.15 528.32 Z" />
<path d=" M 342.70 532.41 C 346.84 531.85 351.10 531.56 355.15 532.81 C 353.70 537.34 349.06 536.91 345.15 537.26 C 344.32 535.65 343.51 534.03 342.70 532.41 Z" />
<path d=" M 683.19 538.18 C 684.51 535.91 686.86 534.55 688.93 533.05 C 690.01 535.61 691.36 538.17 691.62 541.00 C 690.92 544.09 688.90 546.65 687.29 549.31 C 685.74 548.47 684.20 547.61 682.69 546.72 C 683.14 543.93 682.05 540.87 683.19 538.18 Z" />
<path d=" M 429.24 544.85 C 432.43 546.95 435.60 549.04 438.60 551.43 C 442.25 555.73 443.80 561.27 445.89 566.38 C 447.29 570.16 449.01 574.66 446.33 578.27 C 443.31 585.58 437.50 590.76 431.02 594.95 C 433.71 596.29 436.32 597.83 439.18 598.81 C 442.61 600.10 445.98 597.72 449.43 597.86 C 452.36 598.39 454.89 600.17 457.80 600.78 C 462.67 601.63 465.75 606.21 470.41 607.58 C 473.90 607.96 477.46 607.87 480.95 607.41 C 479.26 601.59 475.54 596.77 472.02 591.98 C 468.34 587.01 466.70 580.87 463.16 575.83 C 460.18 571.88 456.43 568.54 453.67 564.43 C 451.52 560.64 451.34 556.15 450.84 551.93 C 453.23 552.80 455.56 553.64 457.97 554.54 C 459.25 557.78 459.32 561.75 461.61 564.59 C 468.42 573.78 473.77 584.04 481.37 592.65 C 486.01 598.23 491.28 603.33 495.28 609.42 C 499.36 618.97 506.08 627.16 509.89 636.85 C 512.55 645.24 515.04 653.69 517.58 662.12 C 520.26 671.59 517.52 681.36 518.01 690.97 C 518.55 699.33 518.92 707.80 521.04 715.95 C 522.32 720.09 519.10 723.59 517.14 726.90 C 514.22 730.93 511.84 737.71 505.41 735.81 C 503.23 731.50 500.98 726.98 501.07 722.02 C 501.75 717.47 503.88 713.35 504.89 708.89 C 505.53 703.12 502.86 697.77 500.03 692.98 C 495.37 686.96 487.23 684.32 483.57 677.40 C 482.03 675.06 480.54 672.00 477.44 671.59 C 472.25 671.09 467.29 673.10 462.29 674.13 C 459.93 674.75 456.87 672.77 457.07 670.22 C 462.46 663.50 471.56 662.07 479.46 663.85 C 487.47 668.25 496.37 670.46 504.52 674.58 C 504.95 667.37 505.91 660.21 506.44 653.02 C 504.77 644.50 500.44 636.84 495.74 629.66 C 493.90 625.25 492.47 620.71 490.74 616.27 C 484.98 616.57 482.93 622.04 479.85 625.84 C 482.12 629.39 484.41 632.94 486.49 636.61 C 479.28 637.59 471.88 635.78 464.81 637.89 C 463.40 636.34 462.01 634.78 460.62 633.23 C 454.49 633.01 448.38 632.50 442.26 632.83 C 441.10 635.43 439.86 638.00 438.65 640.58 C 435.62 639.22 432.70 637.64 429.80 636.03 C 428.37 639.20 427.16 642.45 425.84 645.67 C 420.44 644.89 415.88 641.95 411.21 639.44 C 409.47 642.61 408.61 646.48 405.94 649.03 C 401.29 650.07 396.14 645.75 391.74 648.70 C 383.76 653.53 374.53 655.40 365.45 656.89 C 360.55 657.88 354.33 656.29 350.60 660.58 C 344.88 667.41 333.65 664.08 328.48 671.78 C 331.98 672.65 335.45 673.85 339.07 674.10 C 348.49 673.92 357.63 677.36 367.10 676.14 C 377.92 674.65 388.84 676.65 399.68 675.61 C 409.02 673.90 418.47 672.73 428.00 673.57 C 423.31 676.61 417.58 677.14 412.57 679.48 C 402.56 683.87 391.80 686.36 380.96 687.55 C 372.69 687.85 364.66 685.80 356.85 683.37 C 352.76 681.38 348.22 682.66 344.35 684.37 C 338.97 686.76 333.06 687.49 327.40 688.95 C 329.08 699.21 336.50 706.64 342.60 714.48 C 345.25 717.41 349.68 717.10 353.30 717.99 C 356.60 718.93 359.45 716.64 362.38 715.54 C 367.17 713.34 372.72 715.63 377.49 713.39 C 386.47 708.73 396.59 718.32 405.14 712.08 C 407.23 720.68 411.40 728.46 416.10 735.89 C 425.37 735.73 435.09 737.71 444.12 734.71 C 449.15 733.45 454.21 732.26 459.05 730.36 C 462.81 728.14 466.07 731.32 469.61 732.03 C 474.49 733.69 478.10 729.15 482.74 729.07 C 486.54 733.78 489.00 739.54 492.04 744.78 C 494.43 748.88 490.71 753.00 486.91 753.89 C 481.37 755.27 475.54 754.55 469.91 755.45 C 465.72 755.46 462.76 758.90 459.47 761.03 C 464.02 761.68 468.59 762.48 473.05 763.68 C 471.34 766.98 470.49 770.64 472.50 774.04 C 467.93 774.54 463.37 778.30 458.66 776.57 C 457.21 776.12 454.30 775.24 452.84 774.79 C 449.07 778.36 446.05 782.81 441.79 785.83 C 437.48 787.83 433.41 783.80 429.69 782.08 C 427.55 786.04 425.09 789.80 422.76 793.65 C 425.58 794.94 428.79 795.71 431.13 797.85 C 433.97 802.62 431.21 810.09 436.55 813.50 C 438.96 816.48 442.67 815.66 445.87 815.03 C 443.71 812.10 441.33 809.34 438.92 806.63 C 441.21 800.28 443.71 793.74 448.74 789.01 C 450.79 792.53 454.32 795.66 454.89 799.78 C 452.26 803.55 448.67 806.59 446.18 810.49 C 448.66 811.58 451.16 812.66 453.67 813.73 C 451.84 818.87 446.01 821.36 445.34 827.09 C 453.41 823.89 461.26 820.20 468.77 815.85 C 472.94 815.06 477.32 817.14 481.44 815.13 C 487.74 813.26 494.43 813.70 500.73 811.86 C 509.92 809.96 517.08 803.55 525.03 799.05 C 537.55 791.72 548.63 782.15 561.49 775.41 C 577.78 763.28 592.42 749.04 607.03 734.97 C 608.45 733.19 610.80 733.56 612.81 733.48 C 602.48 747.19 588.29 757.20 576.01 769.01 C 564.33 780.46 549.21 787.83 538.30 800.08 C 534.28 805.18 528.40 808.38 524.67 813.75 C 520.46 819.55 512.58 820.02 507.18 824.26 C 492.73 833.52 477.18 841.71 459.91 843.96 C 447.88 846.82 435.58 844.78 423.40 845.09 C 415.75 845.25 408.12 842.61 402.05 837.97 C 398.02 834.91 392.58 837.23 388.03 836.80 C 388.16 838.63 388.32 840.47 388.47 842.32 C 376.24 830.94 361.41 822.77 347.85 813.13 C 346.38 811.48 346.80 808.98 346.36 806.97 C 343.97 806.54 341.58 806.10 339.19 805.69 C 336.46 801.10 333.13 796.73 331.66 791.51 C 328.61 778.47 318.75 768.77 313.12 756.94 C 309.61 750.02 305.78 743.29 302.61 736.21 C 298.03 728.73 292.33 721.68 289.80 713.14 C 286.56 701.81 283.70 690.38 281.08 678.89 C 279.84 674.91 279.07 670.39 275.64 667.65 C 274.81 656.78 274.88 645.89 275.01 635.01 C 276.32 635.00 277.64 634.99 278.97 634.99 C 278.93 646.08 278.98 657.18 279.22 668.28 C 279.83 664.71 279.84 661.05 280.91 657.59 C 283.82 654.90 288.59 654.40 290.87 651.18 C 292.36 639.40 300.13 630.12 304.10 619.24 C 309.43 619.28 314.95 620.07 320.19 619.09 C 328.07 614.28 334.03 606.56 342.71 602.99 C 347.94 601.74 353.12 600.29 358.21 598.57 C 352.52 592.67 345.36 587.31 336.72 588.11 C 337.14 585.97 337.60 583.84 338.07 581.71 C 347.51 584.12 356.82 588.96 362.23 597.34 C 369.61 596.43 377.05 596.64 384.36 598.07 C 393.23 597.18 402.13 596.04 410.96 594.74 C 419.76 590.08 429.23 585.58 435.95 577.98 C 438.85 573.76 442.14 568.66 439.85 563.34 C 439.82 555.50 432.05 552.28 427.01 547.79 C 427.75 546.81 428.49 545.82 429.24 544.85 Z" />
<path d=" M 672.19 552.67 C 673.84 552.73 673.44 555.45 671.96 555.49 C 670.31 555.41 670.75 552.75 672.19 552.67 Z" />
<path d=" M 321.22 559.90 C 328.08 563.00 323.17 571.73 323.81 577.20 C 327.50 581.38 330.73 586.55 335.99 588.95 C 339.93 590.77 344.02 592.21 348.01 593.91 C 347.56 595.04 347.12 596.18 346.69 597.32 C 335.75 595.31 325.53 588.96 320.47 578.80 C 319.61 572.52 320.15 566.11 321.22 559.90 Z" />
<path d=" M 397.15 576.47 C 404.12 577.46 411.26 575.39 418.08 577.64 C 418.10 578.62 418.14 580.59 418.15 581.58 C 413.34 582.17 408.47 582.19 403.65 582.55 C 399.16 582.68 395.94 586.58 391.45 586.79 C 393.19 583.26 395.18 579.86 397.15 576.47 Z" />
<path d=" M 786.29 622.53 C 787.06 621.37 789.14 622.64 788.32 623.85 C 787.52 625.04 785.41 623.76 786.29 622.53 Z" />
<path d=" M 427.43 673.63 C 430.29 672.68 433.34 672.44 435.97 674.17 C 433.11 674.07 430.27 673.89 427.43 673.63 Z" />
<path d=" M 489.32 726.04 C 490.91 725.77 494.08 725.24 495.66 724.97 C 497.17 729.18 498.83 733.36 500.24 737.62 C 495.19 735.34 492.09 730.58 489.32 726.04 Z" />
<path d=" M 663.32 732.14 C 674.95 737.28 686.50 742.60 698.13 747.76 C 706.64 751.31 713.73 757.36 721.63 761.99 C 736.06 769.70 746.03 783.24 757.27 794.74 C 765.25 803.66 775.06 811.07 781.57 821.25 C 788.12 832.99 791.66 846.16 792.89 859.51 C 793.50 864.99 798.34 868.43 802.33 871.61 C 803.13 867.58 803.92 863.57 804.80 859.58 C 808.93 858.02 811.76 854.60 814.36 851.19 C 820.22 852.68 822.59 858.55 827.18 861.73 C 836.32 866.03 847.08 866.42 855.42 872.54 C 863.29 877.98 871.20 883.42 878.83 889.19 C 884.23 896.72 886.59 905.90 891.18 913.89 C 894.90 920.32 902.50 923.85 904.59 931.33 C 908.59 941.35 913.98 950.73 919.48 960.00 L 127.48 960.00 C 124.12 959.89 120.78 959.94 117.42 960.00 L 98.46 960.00 C 106.09 959.04 113.62 957.48 121.19 956.15 C 127.99 955.04 134.75 957.62 141.55 957.11 C 150.08 955.64 158.21 951.90 166.99 952.03 C 182.28 951.93 197.70 949.22 211.50 942.45 C 212.59 940.42 212.62 938.03 212.96 935.82 C 195.29 940.83 176.78 941.71 158.62 939.19 C 165.21 931.76 175.65 929.97 183.78 924.79 C 194.71 918.02 203.67 908.64 213.81 900.82 C 226.18 891.19 234.70 877.79 242.75 864.59 C 257.91 845.86 278.52 832.76 297.92 818.91 C 305.41 813.90 312.83 808.50 321.27 805.18 C 316.70 822.17 311.97 839.25 310.75 856.90 C 308.23 877.66 307.09 898.53 305.46 919.36 C 305.62 925.19 307.83 930.75 308.94 936.44 C 309.74 926.96 310.52 917.18 314.38 908.39 C 319.39 900.25 327.38 894.57 334.28 888.17 C 332.20 886.68 329.95 885.37 328.17 883.51 C 327.39 880.86 330.27 878.24 332.86 879.07 C 336.22 880.03 338.03 883.42 340.18 885.86 C 344.43 892.48 351.94 895.62 358.30 899.75 C 364.63 903.43 370.19 908.35 376.75 911.65 C 371.77 901.48 360.96 896.35 352.74 889.23 C 346.00 882.96 340.12 875.84 333.50 869.46 C 330.02 866.12 327.44 861.46 327.64 856.53 C 327.99 847.56 328.60 838.62 328.36 829.64 C 328.65 822.66 329.32 814.52 335.88 810.51 C 336.24 813.09 336.24 815.71 335.98 818.31 C 343.56 822.78 351.06 827.49 359.19 830.95 C 369.52 835.53 379.04 841.92 389.99 845.09 C 394.55 846.27 395.72 851.74 399.69 853.74 C 404.73 855.06 410.18 855.40 414.73 858.21 C 421.44 862.24 428.72 865.12 435.83 868.35 C 439.96 870.25 441.78 874.89 445.56 877.21 C 449.77 877.81 453.98 877.33 458.17 876.83 C 459.20 868.13 460.15 859.03 464.64 851.32 C 467.82 848.33 472.26 847.11 476.07 845.14 C 484.39 841.84 491.66 836.21 500.37 833.86 C 506.30 831.82 513.03 832.02 518.37 828.41 C 523.68 825.41 527.55 820.51 532.65 817.21 C 536.18 815.99 540.02 816.26 543.70 815.89 C 547.52 807.54 555.10 802.13 560.75 795.17 C 564.00 797.65 566.48 800.94 568.06 804.71 C 564.60 804.00 561.16 803.22 557.74 802.33 C 557.90 803.54 558.06 804.76 558.22 806.00 C 564.63 807.61 571.18 810.21 577.89 809.03 C 586.24 807.68 594.48 805.52 602.91 804.64 C 621.76 803.11 639.43 792.78 650.59 777.61 C 658.93 764.02 664.76 748.34 663.32 732.14 Z" />
<path d=" M 360.50 826.67 C 361.51 825.59 364.18 826.78 363.50 828.33 C 362.48 829.40 359.82 828.20 360.50 826.67 Z" />
<path d=" M 453.58 849.84 C 456.06 849.22 461.01 847.99 463.49 847.37 C 460.34 848.73 456.96 849.42 453.58 849.84 Z" />
<path d=" M 318.21 879.03 C 319.52 876.02 321.82 873.66 324.71 872.14 C 324.84 873.80 324.97 875.47 325.10 877.15 C 322.81 877.82 320.51 878.45 318.21 879.03 Z" />
<path d=" M 149.99 878.83 C 168.04 878.07 185.94 875.06 204.04 875.10 C 201.04 882.50 195.20 888.12 189.74 893.75 C 178.07 905.42 166.73 917.49 153.90 927.93 C 146.62 933.70 139.80 940.76 130.63 943.46 C 119.00 946.19 106.98 947.02 95.44 950.18 C 78.99 954.69 61.04 957.30 44.58 951.39 C 53.92 945.11 65.42 942.54 73.91 934.92 C 77.94 931.18 82.18 927.61 87.21 925.28 C 96.66 920.59 105.75 915.21 115.19 910.48 C 113.64 908.26 112.12 905.11 108.90 905.44 C 96.83 906.13 84.75 907.03 72.70 907.95 C 63.33 910.00 53.75 912.02 45.01 916.07 C 39.28 918.54 37.06 924.75 32.91 928.94 C 29.53 931.87 25.49 933.94 21.45 935.81 C 21.32 936.31 21.05 937.30 20.92 937.80 C 23.16 938.61 25.40 939.42 27.63 940.25 C 26.74 942.93 25.87 945.56 25.06 948.30 C 30.74 951.37 36.02 955.14 40.29 960.00 L 30.68 960.00 C 18.35 949.13 3.91 937.26 2.38 919.67 C 3.38 913.07 2.58 906.47 0.00 900.29 L 0.00 897.22 C 12.40 892.31 26.02 896.95 38.92 896.25 C 56.97 895.38 75.16 894.68 92.82 890.56 C 111.76 886.24 130.42 879.68 149.99 878.83 Z" />
</svg>